<svg xmlns="http://www.w3.org/2000/svg" xmlns:xlink="http://www.w3.org/1999/xlink" width="100" zoomAndPan="magnify" viewBox="0 0 75 52.499999" height="70" preserveAspectRatio="xMidYMid meet" version="1.0"><path fill="#5271ff" d="M 31.550781 17.34375 C 31.550781 17.34375 63.167969 12.941406 68.925781 20.40625 C 73.648438 26.535156 74.058594 38.300781 69.335938 41.773438 C 64.613281 45.242188 57.425781 43.894531 57.425781 43.894531 C 57.425781 43.894531 62.765625 50.023438 61.945312 50.839844 C 61.121094 51.65625 53.96875 47.777344 51.179688 45.53125 C 48.390625 43.28125 35.320312 45.394531 31.550781 44.101562 C 24.773438 41.773438 20.460938 32.050781 22.101562 25.511719 C 23.746094 18.976562 29.097656 17.519531 31.550781 17.34375 Z M 31.550781 17.34375 " fill-opacity="1" fill-rule="nonzero"/><path fill="#ffffff" d="M 43.355469 4.066406 C 43.355469 4.066406 11.734375 -0.335938 5.980469 7.132812 C 1.257812 13.257812 0.847656 25.023438 5.570312 28.496094 C 10.292969 31.96875 17.480469 30.621094 17.480469 30.621094 C 17.480469 30.621094 12.140625 36.746094 12.960938 37.5625 C 13.785156 38.382812 20.9375 34.5 23.726562 32.253906 C 26.515625 30.007812 39.585938 32.117188 43.355469 30.824219 C 50.132812 28.496094 54.445312 18.773438 52.800781 12.238281 C 51.160156 5.703125 45.808594 4.246094 43.355469 4.066406 Z M 43.355469 4.066406 " fill-opacity="1" fill-rule="nonzero"/><path fill="#183899" d="M 21.230469 16.15625 C 21.230469 16.15625 18.566406 17.34375 19.804688 18.21875 C 21.042969 19.09375 23.039062 18.808594 22.945312 17.671875 C 22.851562 16.535156 21.992188 15.75 21.230469 16.15625 Z M 21.230469 16.15625 " fill-opacity="1" fill-rule="nonzero"/><path fill="#183899" d="M 26.464844 16.292969 C 26.464844 16.292969 24.371094 17.832031 26.464844 18.492188 C 28.558594 19.15625 28.84375 18 28.65625 17.394531 C 28.464844 16.789062 27.894531 15.609375 26.464844 16.292969 Z M 26.464844 16.292969 " fill-opacity="1" fill-rule="nonzero"/><path fill="#183899" d="M 32.269531 16.085938 C 32.269531 16.085938 30.84375 16.640625 31.035156 17.679688 C 31.222656 18.722656 32.460938 19.042969 33.128906 18.691406 C 33.792969 18.34375 34.652344 17.394531 34.269531 16.828125 C 33.890625 16.261719 32.925781 15.707031 32.269531 16.085938 Z M 32.269531 16.085938 " fill-opacity="1" fill-rule="nonzero"/></svg>